<mxfile host="app.diagrams.net" modified="2023-01-10T09:43:53.558Z" agent="5.0 (Macintosh; Intel Mac OS X 10_15_7) AppleWebKit/537.36 (KHTML, like Gecko) Chrome/108.0.0.0 Safari/537.36" version="20.7.4" etag="ZrBzIjBcPoOrZrAI64LJ" type="github">
  <diagram id="XbFGyN3srDOLf9KeEJYj" name="第 1 页">
    <mxGraphModel dx="971" dy="585" grid="1" gridSize="10" guides="1" tooltips="1" connect="1" arrows="1" fold="1" page="1" pageScale="1" pageWidth="1700" pageHeight="1100" math="0" shadow="0">
      <root>
        <mxCell id="0" />
        <mxCell id="1" parent="0" />
        <mxCell id="c9_4yhMKroWEVGrmG8G4-1" value="" style="rounded=0;whiteSpace=wrap;html=1;fillColor=#1ba1e2;fontColor=#ffffff;strokeColor=#006EAF;" vertex="1" parent="1">
          <mxGeometry x="910" y="160" width="640" height="70" as="geometry" />
        </mxCell>
        <mxCell id="c9_4yhMKroWEVGrmG8G4-2" value="cdp数据资产总览" style="rounded=0;whiteSpace=wrap;html=1;" vertex="1" parent="1">
          <mxGeometry x="1010" y="175" width="120" height="40" as="geometry" />
        </mxCell>
        <mxCell id="c9_4yhMKroWEVGrmG8G4-3" value="媒介资产看板" style="rounded=0;whiteSpace=wrap;html=1;" vertex="1" parent="1">
          <mxGeometry x="1140" y="175" width="120" height="40" as="geometry" />
        </mxCell>
        <mxCell id="c9_4yhMKroWEVGrmG8G4-4" value="微信生态人群看板" style="rounded=0;whiteSpace=wrap;html=1;" vertex="1" parent="1">
          <mxGeometry x="1270" y="175" width="120" height="40" as="geometry" />
        </mxCell>
        <mxCell id="c9_4yhMKroWEVGrmG8G4-5" value="用户资产看板" style="rounded=0;whiteSpace=wrap;html=1;" vertex="1" parent="1">
          <mxGeometry x="1400" y="175" width="120" height="40" as="geometry" />
        </mxCell>
        <mxCell id="c9_4yhMKroWEVGrmG8G4-6" value="应用层" style="text;html=1;strokeColor=none;fillColor=none;align=center;verticalAlign=middle;whiteSpace=wrap;rounded=0;fontColor=#FFFFFF;" vertex="1" parent="1">
          <mxGeometry x="920" y="180" width="60" height="30" as="geometry" />
        </mxCell>
        <mxCell id="c9_4yhMKroWEVGrmG8G4-7" value="&lt;font style=&quot;font-size: 15px;&quot;&gt;Open&amp;nbsp; &amp;nbsp;API&lt;/font&gt;" style="rounded=0;whiteSpace=wrap;html=1;fillColor=#1ba1e2;fontColor=#ffffff;strokeColor=#006EAF;" vertex="1" parent="1">
          <mxGeometry x="910" y="260" width="640" height="40" as="geometry" />
        </mxCell>
        <mxCell id="c9_4yhMKroWEVGrmG8G4-8" value="" style="rounded=0;whiteSpace=wrap;html=1;fillColor=#1ba1e2;fontColor=#ffffff;strokeColor=#006EAF;" vertex="1" parent="1">
          <mxGeometry x="910" y="350" width="640" height="70" as="geometry" />
        </mxCell>
        <mxCell id="c9_4yhMKroWEVGrmG8G4-9" value="中间层" style="text;html=1;strokeColor=none;fillColor=none;align=center;verticalAlign=middle;whiteSpace=wrap;rounded=0;fontColor=#FFFFFF;" vertex="1" parent="1">
          <mxGeometry x="920" y="370" width="60" height="30" as="geometry" />
        </mxCell>
        <mxCell id="c9_4yhMKroWEVGrmG8G4-10" value="数据加工" style="rounded=0;whiteSpace=wrap;html=1;" vertex="1" parent="1">
          <mxGeometry x="1000" y="365" width="120" height="40" as="geometry" />
        </mxCell>
        <mxCell id="c9_4yhMKroWEVGrmG8G4-11" value="异构数据处理" style="rounded=0;whiteSpace=wrap;html=1;" vertex="1" parent="1">
          <mxGeometry x="1130" y="365" width="120" height="40" as="geometry" />
        </mxCell>
        <mxCell id="c9_4yhMKroWEVGrmG8G4-12" value="任务调度" style="rounded=0;whiteSpace=wrap;html=1;" vertex="1" parent="1">
          <mxGeometry x="1260" y="365" width="120" height="40" as="geometry" />
        </mxCell>
        <mxCell id="c9_4yhMKroWEVGrmG8G4-13" value="配置管理" style="rounded=0;whiteSpace=wrap;html=1;" vertex="1" parent="1">
          <mxGeometry x="1390" y="365" width="120" height="40" as="geometry" />
        </mxCell>
        <mxCell id="c9_4yhMKroWEVGrmG8G4-14" value="" style="rounded=0;whiteSpace=wrap;html=1;fillColor=#1ba1e2;fontColor=#ffffff;strokeColor=#006EAF;" vertex="1" parent="1">
          <mxGeometry x="910" y="470" width="640" height="70" as="geometry" />
        </mxCell>
        <mxCell id="c9_4yhMKroWEVGrmG8G4-15" value="存储层" style="text;html=1;strokeColor=none;fillColor=none;align=center;verticalAlign=middle;whiteSpace=wrap;rounded=0;fontColor=#FFFFFF;" vertex="1" parent="1">
          <mxGeometry x="920" y="490" width="60" height="30" as="geometry" />
        </mxCell>
        <mxCell id="c9_4yhMKroWEVGrmG8G4-16" value="指标结果" style="rounded=0;whiteSpace=wrap;html=1;" vertex="1" parent="1">
          <mxGeometry x="1140" y="485" width="120" height="40" as="geometry" />
        </mxCell>
        <mxCell id="c9_4yhMKroWEVGrmG8G4-17" value="中间表结果" style="rounded=0;whiteSpace=wrap;html=1;" vertex="1" parent="1">
          <mxGeometry x="1290" y="485" width="120" height="40" as="geometry" />
        </mxCell>
        <mxCell id="c9_4yhMKroWEVGrmG8G4-18" value="" style="rounded=0;whiteSpace=wrap;html=1;fontSize=15;fontColor=#FFFFFF;fillColor=#66FFFF;labelBackgroundColor=#33FFFF;strokeColor=none;" vertex="1" parent="1">
          <mxGeometry x="165" y="152.5" width="70" height="380" as="geometry" />
        </mxCell>
        <mxCell id="c9_4yhMKroWEVGrmG8G4-19" value="&lt;font color=&quot;#000000&quot; style=&quot;font-size: 12px;&quot;&gt;数据存储&lt;/font&gt;" style="text;html=1;strokeColor=none;fillColor=none;align=center;verticalAlign=middle;whiteSpace=wrap;rounded=0;fontSize=12;fontColor=#FFFFFF;" vertex="1" parent="1">
          <mxGeometry x="100" y="160" width="60" height="30" as="geometry" />
        </mxCell>
        <mxCell id="c9_4yhMKroWEVGrmG8G4-20" value="HDFS" style="text;html=1;strokeColor=none;fillColor=none;align=center;verticalAlign=middle;whiteSpace=wrap;rounded=0;labelBackgroundColor=#33FFFF;fontSize=13;fontColor=#000000;" vertex="1" parent="1">
          <mxGeometry x="170" y="360" width="60" height="30" as="geometry" />
        </mxCell>
        <mxCell id="c9_4yhMKroWEVGrmG8G4-21" value="&lt;span style=&quot;color: rgba(0, 0, 0, 0); font-family: monospace; font-size: 0px; text-align: start; background-color: rgb(251, 251, 251);&quot;&gt;%3CmxGraphModel%3E%3Croot%3E%3CmxCell%20id%3D%220%22%2F%3E%3CmxCell%20id%3D%221%22%20parent%3D%220%22%2F%3E%3CmxCell%20id%3D%222%22%20value%3D%22%26lt%3Bfont%20color%3D%26quot%3B%23000000%26quot%3B%20style%3D%26quot%3Bfont-size%3A%2013px%3B%26quot%3B%26gt%3B%E6%95%B0%E6%8D%AE%E5%AD%98%E5%82%A8%26lt%3B%2Ffont%26gt%3B%22%20style%3D%22text%3Bhtml%3D1%3BstrokeColor%3Dnone%3BfillColor%3Dnone%3Balign%3Dcenter%3BverticalAlign%3Dmiddle%3BwhiteSpace%3Dwrap%3Brounded%3D0%3BfontSize%3D13%3BfontColor%3D%23FFFFFF%3B%22%20vertex%3D%221%22%20parent%3D%221%22%3E%3CmxGeometry%20x%3D%22235%22%20y%3D%22165%22%20width%3D%2260%22%20height%3D%2230%22%20as%3D%22geometry%22%2F%3E%3C%2FmxCell%3E%3C%2Froot%3E%3C%2FmxGraphModel%3E&lt;/span&gt;" style="rounded=0;whiteSpace=wrap;html=1;fontSize=15;fontColor=#FFFFFF;fillColor=#66B2FF;labelBackgroundColor=#33FFFF;strokeColor=none;" vertex="1" parent="1">
          <mxGeometry x="260" y="152.5" width="70" height="380" as="geometry" />
        </mxCell>
        <mxCell id="c9_4yhMKroWEVGrmG8G4-22" value="&lt;font color=&quot;#000000&quot; style=&quot;font-size: 12px;&quot;&gt;计算引擎&lt;/font&gt;" style="text;html=1;strokeColor=none;fillColor=none;align=center;verticalAlign=middle;whiteSpace=wrap;rounded=0;fontSize=12;fontColor=#FFFFFF;" vertex="1" parent="1">
          <mxGeometry x="265" y="170" width="60" height="30" as="geometry" />
        </mxCell>
        <mxCell id="c9_4yhMKroWEVGrmG8G4-23" value="SparkSQL" style="text;html=1;strokeColor=none;fillColor=none;align=center;verticalAlign=middle;whiteSpace=wrap;rounded=0;labelBackgroundColor=none;fontSize=12;fontColor=#000000;" vertex="1" parent="1">
          <mxGeometry x="270" y="360" width="60" height="30" as="geometry" />
        </mxCell>
        <mxCell id="c9_4yhMKroWEVGrmG8G4-24" value="" style="rounded=0;whiteSpace=wrap;html=1;labelBackgroundColor=none;strokeColor=#BD7000;fontSize=12;fontColor=#000000;fillColor=#f0a30a;" vertex="1" parent="1">
          <mxGeometry x="360" y="150" width="480" height="180" as="geometry" />
        </mxCell>
        <mxCell id="c9_4yhMKroWEVGrmG8G4-25" value="源数据" style="text;html=1;strokeColor=none;fillColor=none;align=center;verticalAlign=middle;whiteSpace=wrap;rounded=0;labelBackgroundColor=none;fontSize=12;fontColor=#000000;" vertex="1" parent="1">
          <mxGeometry x="360" y="160" width="60" height="30" as="geometry" />
        </mxCell>
        <mxCell id="c9_4yhMKroWEVGrmG8G4-26" value="大特零售会员表" style="rounded=0;whiteSpace=wrap;html=1;labelBackgroundColor=none;strokeColor=#00FFFF;fontSize=12;fontColor=#000000;fillColor=#FFFFFF;" vertex="1" parent="1">
          <mxGeometry x="370" y="190" width="120" height="45" as="geometry" />
        </mxCell>
        <mxCell id="c9_4yhMKroWEVGrmG8G4-27" value="大特零售订单表" style="rounded=0;whiteSpace=wrap;html=1;labelBackgroundColor=none;strokeColor=#00FFFF;fontSize=12;fontColor=#000000;fillColor=#FFFFFF;" vertex="1" parent="1">
          <mxGeometry x="520" y="190" width="130" height="45" as="geometry" />
        </mxCell>
        <mxCell id="c9_4yhMKroWEVGrmG8G4-28" value="大特零售订单明细表" style="rounded=0;whiteSpace=wrap;html=1;labelBackgroundColor=none;strokeColor=#00FFFF;fontSize=12;fontColor=#000000;fillColor=#FFFFFF;" vertex="1" parent="1">
          <mxGeometry x="680" y="190" width="130" height="45" as="geometry" />
        </mxCell>
        <mxCell id="c9_4yhMKroWEVGrmG8G4-29" value="中间表（明细表，oneid 分公司 用户类别/cdp人群名称 手机号 是否关注公众号&amp;nbsp; 是否关注企业微信 特步运动+小程序是否有购买 小程序购买金额&amp;nbsp; ...）" style="rounded=0;whiteSpace=wrap;html=1;labelBackgroundColor=none;strokeColor=#00FFFF;fontSize=12;fontColor=#000000;fillColor=#A9C4EB;" vertex="1" parent="1">
          <mxGeometry x="360" y="400" width="480" height="132.5" as="geometry" />
        </mxCell>
        <mxCell id="c9_4yhMKroWEVGrmG8G4-45" value="" style="shape=flexArrow;endArrow=classic;html=1;rounded=0;fontSize=12;fontColor=#000000;" edge="1" parent="1">
          <mxGeometry width="50" height="50" relative="1" as="geometry">
            <mxPoint x="935" y="570" as="sourcePoint" />
            <mxPoint x="1010" y="570" as="targetPoint" />
          </mxGeometry>
        </mxCell>
        <mxCell id="c9_4yhMKroWEVGrmG8G4-46" value="" style="rounded=0;whiteSpace=wrap;html=1;labelBackgroundColor=none;strokeColor=#FFFFFF;fontSize=12;fontColor=#000000;fillColor=none;gradientColor=none;" vertex="1" parent="1">
          <mxGeometry x="980" y="480" width="510" height="52.5" as="geometry" />
        </mxCell>
        <mxCell id="c9_4yhMKroWEVGrmG8G4-47" value="&lt;b&gt;MySql&lt;/b&gt;" style="text;html=1;strokeColor=none;fillColor=none;align=center;verticalAlign=middle;whiteSpace=wrap;rounded=0;labelBackgroundColor=none;fontSize=12;fontColor=#000000;strokeWidth=3;" vertex="1" parent="1">
          <mxGeometry x="990" y="491.25" width="60" height="30" as="geometry" />
        </mxCell>
        <mxCell id="c9_4yhMKroWEVGrmG8G4-48" value="同步工具&lt;br&gt;DataX" style="rounded=0;whiteSpace=wrap;html=1;labelBackgroundColor=none;strokeColor=#FFFFFF;strokeWidth=3;fontSize=12;fontColor=#000000;fillColor=#66B2FF;gradientColor=none;" vertex="1" parent="1">
          <mxGeometry x="1025" y="550" width="70" height="70" as="geometry" />
        </mxCell>
        <mxCell id="c9_4yhMKroWEVGrmG8G4-49" value="大特电商订单明细表" style="rounded=0;whiteSpace=wrap;html=1;labelBackgroundColor=none;strokeColor=#00FFFF;fontSize=12;fontColor=#000000;fillColor=#FFFFFF;" vertex="1" parent="1">
          <mxGeometry x="370" y="255" width="120" height="45" as="geometry" />
        </mxCell>
        <mxCell id="c9_4yhMKroWEVGrmG8G4-50" value="特步会员俱乐部公众号表" style="rounded=0;whiteSpace=wrap;html=1;labelBackgroundColor=none;strokeColor=#00FFFF;fontSize=12;fontColor=#000000;fillColor=#FFFFFF;" vertex="1" parent="1">
          <mxGeometry x="520" y="255" width="150" height="45" as="geometry" />
        </mxCell>
        <mxCell id="c9_4yhMKroWEVGrmG8G4-51" value="企业微信表" style="rounded=0;whiteSpace=wrap;html=1;labelBackgroundColor=none;strokeColor=#00FFFF;fontSize=12;fontColor=#000000;fillColor=#FFFFFF;" vertex="1" parent="1">
          <mxGeometry x="680" y="255" width="130" height="45" as="geometry" />
        </mxCell>
        <mxCell id="c9_4yhMKroWEVGrmG8G4-52" value="" style="shape=flexArrow;endArrow=classic;html=1;rounded=0;" edge="1" parent="1">
          <mxGeometry width="50" height="50" relative="1" as="geometry">
            <mxPoint x="570" y="340" as="sourcePoint" />
            <mxPoint x="570" y="390" as="targetPoint" />
          </mxGeometry>
        </mxCell>
        <mxCell id="c9_4yhMKroWEVGrmG8G4-53" value="加工以oneId为主键的明细数据" style="text;html=1;strokeColor=none;fillColor=none;align=center;verticalAlign=middle;whiteSpace=wrap;rounded=0;fontColor=#0000CC;fontStyle=1;fontSize=14;" vertex="1" parent="1">
          <mxGeometry x="590" y="355" width="200" height="10" as="geometry" />
        </mxCell>
      </root>
    </mxGraphModel>
  </diagram>
</mxfile>
